<svg id="图层_1" data-name="图层 1" xmlns="http://www.w3.org/2000/svg" viewBox="0 0 43.33 44.13"><defs><style>.cls-1{fill:#e40011;fill-rule:evenodd;}</style></defs><title>favicon</title><path class="cls-1" d="M644,312.87a41.79,41.79,0,0,1,6.7.66c-17.07,4.35-25.11,11-28.45,19.06A21.55,21.55,0,0,1,644,312.87Z" transform="translate(-622.25 -312.87)"/><path class="cls-1" d="M656.06,316.21a5.78,5.78,0,0,1,1.67,1.34c-23.77,4.68-32.14,14-34.48,24.74a9.26,9.26,0,0,1-1-4.35c2.34-12,19.75-21.06,33.81-21.73Z" transform="translate(-622.25 -312.87)"/><path class="cls-1" d="M632.57,350.67l-.07,0-.19-.07-.11,0-.66-.26c-.22-.1-.41-.18-.56-.26-12.75-6.21,3-24.81,32.78-25.78-.67-1-1.68-2.34-2.35-3.34-13.76-.29-31.63,7.86-35.88,19.53a8.24,8.24,0,0,0-.36,5.07,10.72,10.72,0,0,0,2.74,4.64A21.78,21.78,0,0,0,644,357a22.17,22.17,0,0,0,13.46-4.45C648.38,353.45,638.75,352.93,632.57,350.67Z" transform="translate(-622.25 -312.87)"/><path class="cls-1" d="M665.25,329.73c-29.11-.61-49.24,18.67-20.36,19.89a61.24,61.24,0,0,0,16.17-1.68,22.15,22.15,0,0,0,4.52-13.52A20.88,20.88,0,0,0,665.25,329.73ZM653.46,344.2l-9.1-3,7.22-5.42,8.86,2.92Z" transform="translate(-622.25 -312.87)"/></svg>