<svg id="图层_1" data-name="图层 1" xmlns="http://www.w3.org/2000/svg" viewBox="0 0 182.18 185.55"><defs><style>.cls-1{fill-rule:evenodd;}</style></defs><title>未标题-5</title><path class="cls-1" d="M696,291a173.09,173.09,0,0,1,28.15,2.81c-71.78,18.28-105.55,46.39-119.62,80.13C608.77,326.1,648.17,291,696,291Z" transform="translate(-604.55 -290.96)"/><path class="cls-1" d="M746.69,305c2.81,1.4,4.22,2.81,7,5.62-99.92,19.68-135.1,59-145,104a38.78,38.78,0,0,1-4.22-18.27c9.85-50.61,83-88.56,142.14-91.37Z" transform="translate(-604.55 -290.96)"/><path class="cls-1" d="M648,449.88l-.32-.11-.76-.27-.46-.18c-1-.36-1.89-.73-2.78-1.11s-1.74-.77-2.37-1.08C587.66,421,654,342.82,779.05,338.75c-2.81-4.21-7-9.84-9.85-14.05-57.87-1.23-133,33-150.86,82.12-2.55,7-3.45,14-1.51,21.32,2.06,7.73,6.22,13.85,11.5,19.47,17.18,18.22,40.79,28.9,67.69,28.9a93.2,93.2,0,0,0,56.56-18.71C714.39,461.56,673.94,459.42,648,449.88Z" transform="translate(-604.55 -290.96)"/><path class="cls-1" d="M785.32,361.88c-122.37-2.57-207,78.46-85.56,83.58,8.52.29,38.4.64,68-7.06a92.88,92.88,0,0,0,19-56.84C786.73,374.53,786.73,367.5,785.32,361.88Zm-49.56,60.79-38.23-12.51,30.35-22.8,37.24,12.31Z" transform="translate(-604.55 -290.96)"/></svg>