<svg xmlns="http://www.w3.org/2000/svg" viewBox="0 0 430.04 430.04"><defs><style>.cls-1{fill:#e40011;}.cls-2,.cls-3{fill:#fff;}.cls-2{fill-rule:evenodd;}</style></defs><title>资源 3</title><g id="图层_2" data-name="图层 2"><g id="图层_1-2" data-name="图层 1"><circle class="cls-1" cx="215.02" cy="215.02" r="215.02"/><path class="cls-2" d="M212.56,81.74a134,134,0,0,1,21.78,2.17c-55.53,14.14-81.66,35.89-92.55,62,3.27-37,33.76-64.16,70.77-64.16Z"/><path class="cls-2" d="M251.76,92.61c2.18,1.09,3.27,2.17,5.44,4.35-77.3,15.23-104.52,45.67-112.14,80.48a30,30,0,0,1-3.27-14.14c7.62-39.15,64.24-68.52,110-70.69Z"/><path class="cls-2" d="M175.37,204.69l-.24-.09-.59-.21-.36-.14c-.74-.28-1.46-.56-2.15-.86s-1.34-.59-1.83-.84c-41.47-20.18,9.82-80.7,106.6-83.84-2.17-3.26-5.44-7.61-7.62-10.87-44.77-1-102.87,25.56-116.71,63.53-2,5.43-2.67,10.84-1.17,16.49,1.59,6,4.81,10.72,8.9,15.06a70.83,70.83,0,0,0,52.36,22.37,72.1,72.1,0,0,0,43.76-14.48C226.78,213.72,195.48,212.06,175.37,204.69Z"/><path class="cls-2" d="M281.65,136.6c-94.67-2-160.14,60.7-66.2,64.67,6.6.22,29.72.49,52.58-5.47a71.85,71.85,0,0,0,14.71-44C282.74,146.39,282.74,141,281.65,136.6Zm-38.35,47L213.73,174l23.48-17.64L266,165.84Z"/><path class="cls-3" d="M81.54,255.49v2.12h19.31v4H81.54v4H100v4H52.9v-4H70.51v-4H52.05v-4H70.51v-2.12ZM52.05,295.81v-24h48.8V292.2q.21,3.82-4,3.61Zm11-19.95V292.2H87.7c1.55.29,2.19-.42,1.91-2.12V275.86Z"/><path class="cls-3" d="M135.87,255.49l.63,2.12h18.68v5.94H143.93v-1.91H117.41v1.91H106.16v-5.94h19.1l-.43-2.12Zm17.4,9.34V267h1.91v4h-1.91v9.34c0,1.13-.85,2-2.55,2.54l-10.39,3.19,14.85,4.67v5.09l-24.62-7-24.4,7v-5.09l15.07-4.67-10.61-3.19c-1.7-.56-2.55-1.41-2.55-2.54V271h-1.91v-4h1.91v-2.12h11V267h23.13v-2.12Zm-11,13.79V271H119.1v7.64c0,.57.43,1,1.28,1.27l10.18,3.19,10.61-3.19C141.88,279.61,142.23,279.19,142.23,278.62Z"/><path class="cls-3" d="M160.7,292.2l3-.64V261.64h-3v-4h3v-2.12h7.21v2.12h1.91v4h-1.91v28.65l1.91-.21v4l-12.09,1.7Zm42.86-30.56,3.61,21.22,2.33-.84v4l-1.69.63,1.69,9.13h-5.73c-2.4.14-3.89-1.06-4.45-3.61l-.43-2.33-4.45,1.48v-4l3.82-1.27L194,261.64h-9.55v1.91h8.7v28.23q.21,4.25-4,4h-2.76V267.59h-1.91V292.2c.29,2.69-1.13,3.89-4.24,3.61h-5.31v-38.2h18.47l-.22-2.12h9.34l.42,2.12h.43a.93.93,0,0,0,1.06-1.06v-1.06h5.09v2.12c.14,2.83-1.13,4.18-3.82,4Z"/><path class="cls-3" d="M217.14,292.2c1.56.29,2.2-.42,1.91-2.12V275l-4,.85v-4.24l4-.85v-9.13h-4v-4h4v-2.12h9.13v2.12h1.91v4h-1.91v7.22l1.91-.64v4.46l-1.91.42v19.1q.42,4-4,3.61h-9.34V292.2Zm46.69-28.65h-8.07v-1.91H239.42v1.91h-8.27V257.4h12.1l-.43-1.91h9.55l.64,1.91h10.82Zm-32.68,1.06,14.43-1.06v4l-14.43,1.06Zm32.68,9.13H252.58V292h11.25v3.61H231.15V292H242.4V273.74H231.15v-4h32.68Zm0-9.13v4l-14.22-1.06v-4Z"/><path class="cls-3" d="M271.26,276.92V260.37l-1.91.21v-4l12.09-1.06v17.4h16.77v-2.12h-15.5v-3h15.5v-2.12h-15.5v-3h15.5v-2.13h-15.5v-3H298l-.85-2.12h10.19l.85,2.12h10v3h-9.76v2.13h9.76v3h-9.76v2.12h9.76v3h-9.76v2.12h9.76v4Zm9.12,18.89h-11l2.75-12.31h-2.75v-4H288v-1.7h11.25v1.7h18.88v4h-3l3,12.31H306.91l-3-12.31h-4.67v12.31H288V283.5h-4.67Z"/><path class="cls-3" d="M323.67,295.81V255.49h48.81V292.2c.14,2.55-1.21,3.75-4,3.61Zm9.55-36.29V292.2h27.37c1.7.29,2.48-.42,2.34-2.12V259.52Zm27.8,2.55v4h-2.34v20.37c.29,2.69-1.13,3.89-4.24,3.61h-4.88v-24h-3.82l-3.18,24h-7.64l3-24h-3v-4h14.64v-1.7h9.12v1.7Z"/><path class="cls-3" d="M55.81,308.08v-.86h7v.86h-.34c-1-.06-1.55.49-1.55,1.63v9.64a6.61,6.61,0,0,1-2,5,4.6,4.6,0,0,1-3.35,1.37c-1.61,0-2.41-.43-2.41-1.29a1.55,1.55,0,0,1,1.55-1.37,1.6,1.6,0,0,1,1.2.77,1.43,1.43,0,0,0,.86.52c.69,0,1-.72,1-2.15V309.71c.06-1.14-.49-1.69-1.63-1.63Z"/><path class="cls-3" d="M63.73,308.08v-.86h7v.86h-.34c-1.15,0-1.72.55-1.72,1.63v8.69c-.06,1.15.52,1.69,1.72,1.64h.34v.86h-7V320H64c1.14,0,1.69-.52,1.63-1.55v-8.78c.06-1.14-.49-1.69-1.63-1.63Z"/><path class="cls-3" d="M88.24,315.82H83.42l-.86,2.58c-.28.69-.31,1.12-.08,1.29a2.9,2.9,0,0,0,1.8.35h.26v.86H78.69V320H79c1,0,1.69-.64,2.15-2.07L85,307.48l-.26-.6H88l4.39,11.18c.46,1.32,1.2,2,2.23,2v.86H87.47V320h.77c.63,0,1-.15,1.2-.43s.12-.69-.17-1.21Zm-.43-1.2-2.06-5.16-1.9,5.16Z"/><path class="cls-3" d="M98.47,310v8.26c-.11,1.32.61,1.92,2.16,1.81v.86H95.29V320h.17c1.15,0,1.7-.46,1.64-1.38V308.51a3.16,3.16,0,0,0-1.72-.43v-.86h4.47l9,9.37V310c.17-1.43-.51-2.06-2.06-1.89h-.26v-.86h5.68v.86H112c-1.26-.06-1.87.32-1.81,1.12v11.7H109Z"/><path class="cls-3" d="M134.51,316.94h1a13,13,0,0,1-1.29,4,7.63,7.63,0,0,0-1.29-.09c-.29,0-.77,0-1.46.09a20.36,20.36,0,0,1-2.33.17q-7.4-.52-8-7,.68-6.62,8.42-7.22a10.56,10.56,0,0,1,3.53.68,2.73,2.73,0,0,0,.69.18.58.58,0,0,0,.43-.18h.6l.17,3.87h-.86A4.47,4.47,0,0,0,129.7,308q-5,.35-5.34,5.85c.29,3.9,2.15,6,5.6,6.28A5,5,0,0,0,134.51,316.94Z"/><path class="cls-3" d="M147.07,320h.35c1.08,0,1.63-.58,1.63-1.73v-3.87h-7.31v4c0,1.09.57,1.64,1.72,1.64h.34v.86h-7.05V320h.34a1.45,1.45,0,0,0,1.64-1.64v-8.77c0-1-.55-1.55-1.64-1.55h-.34v-.86h7.05v.86h-.34c-1.21-.06-1.78.46-1.72,1.55v3.52h7.31v-3.44c.06-1.14-.55-1.69-1.81-1.63h-.17v-.86h7.05v.86h-.43c-1.14-.06-1.69.46-1.63,1.55v8.77c-.06,1.15.52,1.69,1.72,1.64h.34v.86h-7.05Z"/><path class="cls-3" d="M165,308.42h-4.82v4.91h3.62c1.14.05,1.69-.46,1.63-1.55h.86v4.38h-.86c.17-1.14-.49-1.66-2-1.54h-3.27v3.95c0,.86.23,1.24.86,1.12h3.7c1.38.12,2.21-.63,2.5-2.24h.86l-.26,3.45H154.55V320h.86c1.21,0,1.78-.46,1.72-1.55v-8.86c.06-1.09-.57-1.61-1.89-1.55H155v-.86h12.13l.26,3.18h-.86C166.34,309,165.82,308.31,165,308.42Z"/><path class="cls-3" d="M172.44,310v8.26c-.11,1.32.61,1.92,2.15,1.81v.86h-5.33V320h.17c1.15,0,1.69-.46,1.64-1.38V308.51a3.16,3.16,0,0,0-1.72-.43v-.86h4.47l9,9.37V310c.17-1.43-.51-2.06-2.06-1.89h-.26v-.86h5.68v.86H186c-1.26-.06-1.87.32-1.81,1.12v11.7h-1.2Z"/><path class="cls-3" d="M203.32,314.27v.86c-1.09-.05-1.6.4-1.55,1.38v3.27a16.5,16.5,0,0,1-5.76,1.29q-8-.18-8.26-7.23c.35-4.35,3-6.68,8-7a16.23,16.23,0,0,1,3.62.51,6.68,6.68,0,0,0,1.2.26c.34,0,.54-.09.6-.26h.6v4h-.86a4.49,4.49,0,0,0-4.56-3.53q-5,.35-5.33,6,.34,5.85,5.33,6.28a5,5,0,0,0,2.41-.51v-3.1c.23-.92-.68-1.38-2.75-1.38v-.86Z"/><path class="cls-3" d="M216.65,314.53v3.87c-.05,1.15.52,1.69,1.72,1.64h.35v.86h-7.23V320h.43c1.15,0,1.69-.49,1.64-1.64v-8.69c.05-1.14-.52-1.69-1.72-1.63h-.35v-.86h7.23v.86h-.43c-1.21-.06-1.75.52-1.64,1.72v4a5.46,5.46,0,0,0,2.93-1.64c1.32-1.55,2-2.66,2.06-3.35q0-.69-1.29-.69h-.26v-.86H226v.86c-1.26,0-2.07.26-2.41.77a8.11,8.11,0,0,0-1.29,1.64,12.84,12.84,0,0,1-2.41,2.66,11.24,11.24,0,0,1,2.41,2.41l1.89,2.41q1.54,2.14,3.36,2.07v.86H220V320c1,0,1.55-.21,1.55-.61-.23-.69-1.35-2.06-3.36-4.13C217.57,314.73,217.05,314.47,216.65,314.53Z"/><path class="cls-3" d="M228.44,314.27q.51-7,8.43-7.48,7.47.43,7.91,7-.53,7-8.34,7.31Q229,320.72,228.44,314.27Zm3.27-1q.25,6.63,5.24,7.05,4.31-.17,4.56-5.67-.34-6.54-5.16-6.88C233.42,307.91,231.88,309.74,231.71,313.24Z"/><path class="cls-3" d="M249.59,310v8.26c-.11,1.32.61,1.92,2.16,1.81v.86h-5.34V320h.18c1.14,0,1.69-.46,1.63-1.38V308.51a3.16,3.16,0,0,0-1.72-.43v-.86H251l9,9.37V310c.17-1.43-.51-2.06-2.06-1.89h-.26v-.86h5.68v.86h-.26c-1.26-.06-1.87.32-1.81,1.12v11.7h-1.2Z"/><path class="cls-3" d="M280.47,314.27v.86c-1.09-.05-1.6.4-1.55,1.38v3.27a16.5,16.5,0,0,1-5.76,1.29q-8-.18-8.25-7.23c.34-4.35,3-6.68,8-7a16.23,16.23,0,0,1,3.62.51,6.68,6.68,0,0,0,1.2.26c.34,0,.54-.09.6-.26h.6v4h-.86a4.49,4.49,0,0,0-4.55-3.53q-5,.35-5.34,6,.34,5.85,5.34,6.28a5.09,5.09,0,0,0,2.41-.51v-3.1c.22-.92-.69-1.38-2.76-1.38v-.86Z"/><path class="cls-3" d="M304.9,314.27v.86c-1.09-.05-1.61.4-1.55,1.38v3.27a16.5,16.5,0,0,1-5.76,1.29q-8-.18-8.26-7.23c.35-4.35,3-6.68,8-7a16.07,16.07,0,0,1,3.61.51,6.72,6.72,0,0,0,1.21.26c.34,0,.54-.09.6-.26h.6v4h-.86a4.51,4.51,0,0,0-4.56-3.53q-5,.35-5.33,6,.34,5.85,5.33,6.28a5,5,0,0,0,2.41-.51v-3.1c.23-.92-.69-1.38-2.75-1.38v-.86Z"/><path class="cls-3" d="M310.84,315.05v3.35c0,1.09.57,1.64,1.71,1.64h.69v.86h-7.65V320h.34c1.32,0,1.95-.49,1.89-1.64v-8.69c.12-1.14-.48-1.69-1.8-1.63h-.43v-.86a2.43,2.43,0,0,0,.6-.09c1-.05,1.78-.08,2.24-.08,1.6-.12,2.81-.17,3.61-.17,3.1-.06,5.13.46,6.11,1.54a3.44,3.44,0,0,1,1,2.5q-.09,2.67-3.27,3.52a16.26,16.26,0,0,1,2,2.33,22.74,22.74,0,0,0,1.8,2.15,3.93,3.93,0,0,0,2.93,1.37V321h-1.38q-3.62.09-4.81-1.29A17.68,17.68,0,0,1,315,317.8a16,16,0,0,0-2.41-2.75Zm0-7.23v6.37h.86c2.86,0,4.27-1.06,4.21-3.19s-1.35-3.12-3.87-3.18Z"/><path class="cls-3" d="M323.39,314.27c.35-4.7,3.15-7.19,8.43-7.48q7.49.43,7.91,7-.51,7-8.34,7.31Q324,320.72,323.39,314.27Zm3.27-1q.25,6.63,5.25,7.05,4.29-.17,4.56-5.67-.35-6.54-5.16-6.88Q326.91,308,326.66,313.24Z"/><path class="cls-3" d="M352,308.08v-.86h5.68v.86h-.17c-1.38-.06-2,.55-2,1.81v5.5q-.09,5.6-6.19,5.68-6.37-.09-6.45-5v-6.54c.05-1-.46-1.52-1.55-1.46h-.43v-.86h6.88v.86h-.34c-1,0-1.55.49-1.55,1.46v6.54q.07,3.53,3.95,3.61c2.81-.06,4.25-1.4,4.3-4v-5.33c.06-1.55-.54-2.3-1.8-2.24Z"/><path class="cls-3" d="M363.39,315.13v3.27c-.12,1.21.51,1.75,1.89,1.64h.6v.86H358.4V320h.34c1.15,0,1.67-.38,1.55-1.3v-9.37c.12-.92-.4-1.35-1.55-1.29h-.43v-.86c.86-.11,2-.2,3.53-.26,1-.06,2.21-.08,3.53-.08,3.84.05,5.84,1.49,6,4.3-.12,2.63-1.95,4-5.51,4.12A18,18,0,0,1,363.39,315.13Zm0-7.14v6.2a6.63,6.63,0,0,0,1.55.17q3.09-.09,3.18-3.36a2.91,2.91,0,0,0-3.18-3.18A3.73,3.73,0,0,0,363.39,308Z"/><path class="cls-3" d="M75.66,307.22H78.3l-1.52,4.22H74.61Z"/></g></g></svg>